<svg width="130" height="42" viewBox="0 0 130 42" fill="none" xmlns="http://www.w3.org/2000/svg">
<path d="M9.5 22.88C7.94267 22.88 6.53467 22.6133 5.276 22.08C4.03867 21.5467 3.05733 20.7787 2.332 19.776C1.60667 18.7733 1.23333 17.5893 1.212 16.224H6.012C6.076 17.1413 6.396 17.8667 6.972 18.4C7.56933 18.9333 8.38 19.2 9.404 19.2C10.4493 19.2 11.2707 18.9547 11.868 18.464C12.4653 17.952 12.764 17.2907 12.764 16.48C12.764 15.8187 12.5613 15.2747 12.156 14.848C11.7507 14.4213 11.2387 14.0907 10.62 13.856C10.0227 13.6 9.19067 13.3227 8.124 13.024C6.67333 12.5973 5.48933 12.1813 4.572 11.776C3.676 11.3493 2.89733 10.72 2.236 9.888C1.596 9.03467 1.276 7.904 1.276 6.496C1.276 5.17333 1.60667 4.02133 2.268 3.04C2.92933 2.05867 3.85733 1.312 5.052 0.799999C6.24667 0.266666 7.612 0 9.148 0C11.452 0 13.3187 0.565333 14.748 1.696C16.1987 2.80533 16.9987 4.36267 17.148 6.368H12.22C12.1773 5.6 11.8467 4.97067 11.228 4.48C10.6307 3.968 9.83067 3.712 8.828 3.712C7.95333 3.712 7.24933 3.936 6.716 4.384C6.204 4.832 5.948 5.48267 5.948 6.336C5.948 6.93333 6.14 7.43467 6.524 7.84C6.92933 8.224 7.42 8.544 7.996 8.8C8.59333 9.03467 9.42533 9.312 10.492 9.632C11.9427 10.0587 13.1267 10.4853 14.044 10.912C14.9613 11.3387 15.7507 11.9787 16.412 12.832C17.0733 13.6853 17.404 14.8053 17.404 16.192C17.404 17.3867 17.0947 18.496 16.476 19.52C15.8573 20.544 14.9507 21.3653 13.756 21.984C12.5613 22.5813 11.1427 22.88 9.5 22.88Z" fill="#583EF2"/>
<path d="M31.356 22.88C29.2653 22.88 27.3453 22.3893 25.596 21.408C23.8467 20.4267 22.46 19.072 21.436 17.344C20.412 15.5947 19.9 13.6213 19.9 11.424C19.9 9.248 20.412 7.296 21.436 5.568C22.46 3.81867 23.8467 2.45333 25.596 1.472C27.3453 0.490666 29.2653 0 31.356 0C33.468 0 35.388 0.490666 37.116 1.472C38.8653 2.45333 40.2413 3.81867 41.244 5.568C42.268 7.296 42.78 9.248 42.78 11.424C42.78 13.6213 42.268 15.5947 41.244 17.344C40.2413 19.072 38.8653 20.4267 37.116 21.408C35.3667 22.3893 33.4467 22.88 31.356 22.88ZM31.356 18.88C32.7 18.88 33.884 18.5813 34.908 17.984C35.932 17.3653 36.732 16.4907 37.308 15.36C37.884 14.2293 38.172 12.9173 38.172 11.424C38.172 9.93067 37.884 8.62933 37.308 7.52C36.732 6.38933 35.932 5.52533 34.908 4.928C33.884 4.33067 32.7 4.032 31.356 4.032C30.012 4.032 28.8173 4.33067 27.772 4.928C26.748 5.52533 25.948 6.38933 25.372 7.52C24.796 8.62933 24.508 9.93067 24.508 11.424C24.508 12.9173 24.796 14.2293 25.372 15.36C25.948 16.4907 26.748 17.3653 27.772 17.984C28.8173 18.5813 30.012 18.88 31.356 18.88Z" fill="#583EF2"/>
<path d="M59.605 0.32V3.936H50.293V9.664H57.429V13.216H50.293V22.656H45.813V0.32H59.605Z" fill="#583EF2"/>
<path d="M77.6817 0.32V3.936H71.7298V22.656H67.2497V3.936H61.2977V0.32H77.6817Z" fill="#583EF2"/>
<path d="M94.3465 18.4H85.4505L83.9785 22.656H79.2745L87.3065 0.287998H92.5225L100.555 22.656H95.8185L94.3465 18.4ZM93.1305 14.816L89.8985 5.472L86.6665 14.816H93.1305Z" fill="#583EF2"/>
<path d="M107.737 0.32V22.656H103.257V0.32H107.737Z" fill="#583EF2"/>
<path d="M123.383 22.656L118.455 13.952H116.343V22.656H111.863V0.32H120.247C121.975 0.32 123.447 0.629333 124.663 1.248C125.879 1.84533 126.786 2.66667 127.383 3.712C128.002 4.736 128.311 5.888 128.311 7.168C128.311 8.64 127.884 9.97333 127.031 11.168C126.178 12.3413 124.908 13.152 123.223 13.6L128.567 22.656H123.383ZM116.343 10.592H120.087C121.303 10.592 122.21 10.304 122.807 9.728C123.404 9.13067 123.703 8.30933 123.703 7.264C123.703 6.24 123.404 5.45067 122.807 4.896C122.21 4.32 121.303 4.032 120.087 4.032H116.343V10.592Z" fill="#583EF2"/>
<path d="M6.426 27.87V28.682H3.71V37.656H2.73V28.682H0V27.87H6.426Z" fill="#5E5E5E"/>
<path d="M20.3894 33.442C20.3894 33.778 20.3801 34.0347 20.3614 34.212H14.0194C14.0474 34.7907 14.1874 35.2853 14.4394 35.696C14.6914 36.1067 15.0228 36.4193 15.4334 36.634C15.8441 36.8393 16.2921 36.942 16.7774 36.942C17.4121 36.942 17.9441 36.788 18.3734 36.48C18.8121 36.172 19.1014 35.7567 19.2414 35.234H20.2774C20.0908 35.9807 19.6894 36.592 19.0734 37.068C18.4668 37.5347 17.7014 37.768 16.7774 37.768C16.0588 37.768 15.4148 37.6093 14.8454 37.292C14.2761 36.9653 13.8281 36.508 13.5014 35.92C13.1841 35.3227 13.0254 34.6273 13.0254 33.834C13.0254 33.0407 13.1841 32.3453 13.5014 31.748C13.8188 31.1507 14.2621 30.6933 14.8314 30.376C15.4008 30.0587 16.0494 29.9 16.7774 29.9C17.5054 29.9 18.1401 30.0587 18.6814 30.376C19.2321 30.6933 19.6521 31.1227 19.9414 31.664C20.2401 32.196 20.3894 32.7887 20.3894 33.442ZM19.3954 33.414C19.4048 32.8447 19.2881 32.3593 19.0454 31.958C18.8121 31.5567 18.4901 31.2533 18.0794 31.048C17.6688 30.8427 17.2208 30.74 16.7354 30.74C16.0074 30.74 15.3868 30.9733 14.8734 31.44C14.3601 31.9067 14.0754 32.5647 14.0194 33.414H19.3954Z" fill="#5E5E5E"/>
<path d="M27.2344 33.834C27.2344 33.0407 27.3931 32.35 27.7104 31.762C28.0278 31.1647 28.4664 30.7073 29.0264 30.39C29.5864 30.0633 30.2258 29.9 30.9444 29.9C31.8871 29.9 32.6618 30.1333 33.2684 30.6C33.8844 31.0667 34.2811 31.7013 34.4584 32.504H33.4084C33.2778 31.9533 32.9931 31.524 32.5544 31.216C32.1251 30.8987 31.5884 30.74 30.9444 30.74C30.4311 30.74 29.9691 30.8567 29.5584 31.09C29.1478 31.3233 28.8211 31.6733 28.5784 32.14C28.3451 32.5973 28.2284 33.162 28.2284 33.834C28.2284 34.506 28.3451 35.0753 28.5784 35.542C28.8211 36.0087 29.1478 36.3587 29.5584 36.592C29.9691 36.8253 30.4311 36.942 30.9444 36.942C31.5884 36.942 32.1251 36.788 32.5544 36.48C32.9931 36.1627 33.2778 35.724 33.4084 35.164H34.4584C34.2811 35.948 33.8844 36.578 33.2684 37.054C32.6524 37.53 31.8778 37.768 30.9444 37.768C30.2258 37.768 29.5864 37.6093 29.0264 37.292C28.4664 36.9653 28.0278 36.508 27.7104 35.92C27.3931 35.3227 27.2344 34.6273 27.2344 33.834Z" fill="#5E5E5E"/>
<path d="M45.4084 29.872C45.987 29.872 46.505 29.9933 46.9624 30.236C47.429 30.4787 47.793 30.852 48.0544 31.356C48.325 31.8507 48.4604 32.4573 48.4604 33.176V37.656H47.4944V33.288C47.4944 32.4573 47.2844 31.8227 46.8644 31.384C46.4537 30.9453 45.889 30.726 45.1704 30.726C44.433 30.726 43.845 30.9593 43.4064 31.426C42.9677 31.8927 42.7484 32.5787 42.7484 33.484V37.656H41.7684V27.296H42.7484V31.314C42.991 30.8567 43.3457 30.502 43.8124 30.25C44.2884 29.998 44.8204 29.872 45.4084 29.872Z" fill="#5E5E5E"/>
<path d="M59.7117 29.872C60.6264 29.872 61.3731 30.1567 61.9517 30.726C62.5304 31.286 62.8197 32.1027 62.8197 33.176V37.656H61.8537V33.288C61.8537 32.4573 61.6437 31.8227 61.2237 31.384C60.8131 30.9453 60.2484 30.726 59.5297 30.726C58.7924 30.726 58.2044 30.9593 57.7657 31.426C57.3271 31.8927 57.1077 32.5787 57.1077 33.484V37.656H56.1277V30.012H57.1077V31.314C57.3504 30.8473 57.7004 30.4927 58.1577 30.25C58.6151 29.998 59.1331 29.872 59.7117 29.872Z" fill="#5E5E5E"/>
<path d="M73.8331 37.768C73.1144 37.768 72.4658 37.6093 71.8871 37.292C71.3178 36.9653 70.8651 36.508 70.5291 35.92C70.2024 35.3227 70.0391 34.6273 70.0391 33.834C70.0391 33.0407 70.2071 32.35 70.5431 31.762C70.8791 31.1647 71.3364 30.7073 71.9151 30.39C72.4938 30.0633 73.1424 29.9 73.8611 29.9C74.5798 29.9 75.2284 30.0633 75.8071 30.39C76.3951 30.7073 76.8524 31.1647 77.1791 31.762C77.5151 32.35 77.6831 33.0407 77.6831 33.834C77.6831 34.618 77.5151 35.3087 77.1791 35.906C76.8431 36.5033 76.3811 36.9653 75.7931 37.292C75.2051 37.6093 74.5518 37.768 73.8331 37.768ZM73.8331 36.914C74.3371 36.914 74.8038 36.802 75.2331 36.578C75.6624 36.3447 76.0078 35.9993 76.2691 35.542C76.5398 35.0753 76.6751 34.506 76.6751 33.834C76.6751 33.162 76.5444 32.5973 76.2831 32.14C76.0218 31.6733 75.6764 31.328 75.2471 31.104C74.8178 30.8707 74.3511 30.754 73.8471 30.754C73.3431 30.754 72.8764 30.8707 72.4471 31.104C72.0178 31.328 71.6724 31.6733 71.4111 32.14C71.1591 32.5973 71.0331 33.162 71.0331 33.834C71.0331 34.506 71.1591 35.0753 71.4111 35.542C71.6724 35.9993 72.0131 36.3447 72.4331 36.578C72.8624 36.802 73.3291 36.914 73.8331 36.914Z" fill="#5E5E5E"/>
<path d="M85.9495 27.296V37.656H84.9695V27.296H85.9495Z" fill="#5E5E5E"/>
<path d="M97.0147 37.768C96.2961 37.768 95.6474 37.6093 95.0687 37.292C94.4994 36.9653 94.0467 36.508 93.7107 35.92C93.3841 35.3227 93.2207 34.6273 93.2207 33.834C93.2207 33.0407 93.3887 32.35 93.7247 31.762C94.0607 31.1647 94.5181 30.7073 95.0967 30.39C95.6754 30.0633 96.3241 29.9 97.0427 29.9C97.7614 29.9 98.4101 30.0633 98.9887 30.39C99.5767 30.7073 100.034 31.1647 100.361 31.762C100.697 32.35 100.865 33.0407 100.865 33.834C100.865 34.618 100.697 35.3087 100.361 35.906C100.025 36.5033 99.5627 36.9653 98.9747 37.292C98.3867 37.6093 97.7334 37.768 97.0147 37.768ZM97.0147 36.914C97.5187 36.914 97.9854 36.802 98.4147 36.578C98.8441 36.3447 99.1894 35.9993 99.4508 35.542C99.7214 35.0753 99.8568 34.506 99.8568 33.834C99.8568 33.162 99.7261 32.5973 99.4648 32.14C99.2034 31.6733 98.8581 31.328 98.4287 31.104C97.9994 30.8707 97.5327 30.754 97.0287 30.754C96.5247 30.754 96.0581 30.8707 95.6288 31.104C95.1994 31.328 94.8541 31.6733 94.5928 32.14C94.3408 32.5973 94.2148 33.162 94.2148 33.834C94.2148 34.506 94.3408 35.0753 94.5928 35.542C94.8541 35.9993 95.1948 36.3447 95.6148 36.578C96.0441 36.802 96.5107 36.914 97.0147 36.914Z" fill="#5E5E5E"/>
<path d="M111.357 29.9C112.076 29.9 112.701 30.068 113.233 30.404C113.765 30.74 114.148 31.1647 114.381 31.678V30.012H115.361V37.852C115.361 38.552 115.207 39.1727 114.899 39.714C114.601 40.2553 114.181 40.6707 113.639 40.96C113.098 41.2587 112.482 41.408 111.791 41.408C110.811 41.408 109.995 41.1747 109.341 40.708C108.697 40.2413 108.296 39.6067 108.137 38.804H109.103C109.271 39.336 109.589 39.7607 110.055 40.078C110.531 40.3953 111.11 40.554 111.791 40.554C112.286 40.554 112.729 40.4467 113.121 40.232C113.513 40.0267 113.821 39.7187 114.045 39.308C114.269 38.8973 114.381 38.412 114.381 37.852V35.962C114.139 36.4847 113.751 36.9187 113.219 37.264C112.697 37.6 112.076 37.768 111.357 37.768C110.657 37.768 110.027 37.6047 109.467 37.278C108.917 36.9513 108.483 36.4893 108.165 35.892C107.857 35.2947 107.703 34.604 107.703 33.82C107.703 33.036 107.857 32.35 108.165 31.762C108.483 31.1647 108.917 30.7073 109.467 30.39C110.027 30.0633 110.657 29.9 111.357 29.9ZM114.381 33.834C114.381 33.218 114.255 32.6767 114.003 32.21C113.751 31.7433 113.406 31.384 112.967 31.132C112.538 30.88 112.062 30.754 111.539 30.754C110.998 30.754 110.513 30.8753 110.083 31.118C109.654 31.3607 109.313 31.7153 109.061 32.182C108.819 32.6393 108.697 33.1853 108.697 33.82C108.697 34.4453 108.819 34.996 109.061 35.472C109.313 35.9387 109.654 36.298 110.083 36.55C110.513 36.7927 110.998 36.914 111.539 36.914C112.062 36.914 112.538 36.788 112.967 36.536C113.406 36.284 113.751 35.9247 114.003 35.458C114.255 34.9913 114.381 34.45 114.381 33.834Z" fill="#5E5E5E"/>
<path d="M129.398 30.012L124.862 41.254H123.84L125.324 37.614L122.188 30.012H123.266L125.87 36.536L128.39 30.012H129.398Z" fill="#5E5E5E"/>
</svg>
